<svg width="178" height="258" viewBox="0 0 178 258" fill="none" xmlns="http://www.w3.org/2000/svg">
<g filter="url(#filter0_d)">
<g clip-path="url(#clip0)">
<path d="M18.1378 3.22362C17.5235 3.68413 17.0628 3.68413 16.4485 4.14465C15.527 5.21919 13.8376 6.29373 12.9161 7.36827C10.766 9.97786 9.23016 12.5875 8.61584 15.8111C8.1551 18.4207 7.54077 21.0303 8.1551 23.6399C8.1551 26.8635 9.23016 29.4731 9.6909 31.4686C10.766 34.0782 11.841 36.8413 12.3018 38.8369C13.3768 41.4465 14.4519 44.0561 14.9126 47.2797C15.9877 50.5033 16.4485 53.1129 16.4485 55.1085C16.4485 56.797 16.4485 58.3321 15.9877 59.8672C15.527 61.4022 14.9126 62.4767 14.4519 64.0118C13.8376 64.6258 13.8376 65.0863 13.3768 65.7004C13.3768 65.7004 12.9161 65.7004 12.9161 66.1609C12.3018 66.1609 12.3018 66.1609 12.3018 66.1609C11.841 66.1609 11.841 66.1609 11.841 66.1609C11.2267 66.1609 11.2267 66.1609 11.2267 66.1609C10.766 66.1609 10.766 66.1609 10.1516 66.1609C10.1516 65.7004 9.6909 65.0863 9.23016 65.0863C8.1551 64.0118 7.54077 63.0908 6.46571 61.4022V62.0162C5.54422 59.8672 4.46916 57.2576 3.85483 55.7225C3.85483 54.0339 3.39409 53.1129 3.39409 52.0384V51.4244V50.9638L2.93335 50.5033V49.8893C2.93335 48.3542 2.31903 46.8192 2.31903 45.1306C1.85828 42.521 1.24396 40.986 0.168897 39.4509C0.168897 38.3764 -0.291845 37.7624 -0.752588 36.8413C-1.82765 36.2273 -2.44198 35.7668 -2.90272 34.6922C-3.51704 34.6922 -3.51704 34.6922 -3.97778 34.0782V152.277C-0.752588 152.277 2.93335 152.891 6.46571 152.891H7.54077C9.23016 152.891 11.2267 153.352 12.9161 153.352C14.9126 153.352 17.5235 153.352 19.6737 152.891C24.4347 152.891 29.1957 152.277 33.8031 151.356C38.5641 150.282 43.3251 148.593 47.011 147.058C48.0861 146.598 49.1612 145.984 50.0826 145.523C51.1577 144.909 52.2328 143.988 52.8471 143.374C53.7686 142.914 54.3829 142.3 54.8436 141.839C55.458 141.379 55.9187 140.765 56.533 140.304C59.1439 137.694 61.1404 134.931 62.2155 131.861C63.7513 128.177 64.8264 124.953 64.3656 121.883C64.3656 120.348 63.7513 118.66 63.2906 117.739C62.2155 116.05 61.1404 114.515 59.6046 113.441C59.1439 112.98 58.0688 112.98 57.4545 112.366C56.533 111.906 55.9187 111.906 54.8436 111.292C53.3078 111.292 51.772 111.292 49.6219 111.906C48.0861 112.366 45.936 112.98 44.4002 114.055C42.8643 114.515 41.175 114.976 39.6391 115.59C38.5641 116.05 37.0283 116.05 35.9532 116.05C34.8781 116.05 34.4174 116.05 33.8031 116.05C33.3423 115.59 33.3423 115.59 32.8816 115.59C32.8816 115.59 32.2673 115.59 32.2673 114.976L31.8065 114.515C31.8065 114.515 31.8065 114.515 31.8065 114.055C31.8065 114.055 31.8065 113.441 32.2673 113.441C32.2673 112.98 32.2673 112.366 32.8816 111.906C33.3423 110.831 33.8031 110.37 34.4174 109.756C34.8781 108.682 35.9532 108.221 37.0283 107.761C38.1033 107.147 39.6391 106.686 41.175 106.072C44.8609 104.998 49.1612 104.537 52.8471 104.077H53.7686C55.458 104.077 57.4545 104.077 59.1439 103.463C60.6797 103.463 62.2155 103.002 63.7513 102.388C65.9015 101.928 68.0516 100.853 70.2017 99.3181C71.1232 98.704 71.7375 98.704 72.1983 98.2435C75.4235 96.0945 77.42 93.4849 79.1094 90.8753C80.1845 89.3402 80.6452 88.2657 81.1059 86.7306C81.1059 85.0421 81.1059 83.507 81.1059 81.9719C81.1059 80.4369 80.6452 78.7483 80.1845 77.6738C80.1845 77.2133 79.5701 76.7528 79.5701 76.7528C79.1094 76.1387 79.1094 75.6782 78.4951 75.0642C77.42 74.1432 75.4235 73.5291 73.2733 73.5291C71.1232 73.5291 69.1266 74.1432 66.9765 74.6037C65.4407 75.6782 63.2906 76.1387 61.1404 76.7528L60.6797 77.2133C58.5296 78.2878 56.533 78.7483 53.7686 79.3624C52.8471 79.8229 51.772 79.8229 50.697 80.4369C50.0826 80.4369 49.6219 79.8229 49.1612 79.8229C48.5468 79.8229 48.5468 79.8229 48.0861 79.8229C48.0861 79.3624 48.0861 79.3624 47.4718 79.3624C47.4718 78.7483 47.4718 78.7483 47.011 78.7483V78.2878V77.6738C47.011 77.6738 47.011 77.6738 47.011 77.2133C47.011 77.2133 47.011 76.7528 47.4718 76.7528C47.4718 75.6782 48.0861 75.0642 48.5468 74.6037C49.6219 74.1432 50.697 73.0686 51.772 72.4546C52.8471 71.3801 54.3829 70.459 55.458 69.845C56.533 68.7705 57.4545 68.31 59.1439 67.6959V67.2354H59.6046L60.219 66.7749C60.6797 66.7749 61.1404 66.1609 61.7548 65.7004C62.2155 65.7004 62.2155 65.7004 62.8298 65.0863C63.2906 64.6258 63.7513 64.6258 64.3656 64.1653C65.4407 63.0908 65.9015 62.0162 66.9765 60.4812C68.0516 59.4066 68.5123 57.7181 69.5874 56.183C70.2017 54.648 70.6625 53.1129 71.1232 51.4244C72.1983 48.3542 72.1983 45.7446 71.7375 43.1351C71.7375 41.4465 71.1232 40.5255 70.6625 39.4509C69.5874 38.3764 68.5123 37.7624 67.4373 37.3018C66.5158 36.8413 65.9015 36.8413 65.4407 36.8413C64.3656 36.2273 63.2906 36.2273 62.2155 36.2273C60.219 36.2273 58.5296 36.8413 56.9938 37.3018C56.533 37.3018 55.9187 37.7624 55.9187 37.7624C53.3078 39.4509 51.772 42.0605 50.0826 44.6701L49.6219 45.1306C48.5468 47.2797 47.4718 48.8148 45.936 50.5033C44.8609 50.9638 44.4002 52.0384 43.7858 52.0384C42.8643 52.4989 41.7893 53.1129 40.7142 53.5734C40.0999 53.5734 39.6391 53.5734 39.1784 53.5734H38.5641C38.1033 53.5734 38.1033 53.5734 38.1033 53.5734L37.489 53.1129L37.0283 52.4989V52.0384C37.0283 51.4244 37.0283 50.9638 36.5675 50.5033C36.5675 48.8148 37.0283 46.8192 37.489 45.7446C38.1033 43.5956 38.5641 40.986 39.6391 38.3764L40.7142 36.8413C41.175 35.7668 41.175 35.1528 41.7893 34.0782C42.25 32.0827 42.8643 30.3941 43.3251 28.3985C44.8609 23.6399 45.4752 19.9557 44.8609 16.2716C44.8609 14.1225 44.4002 12.1269 43.3251 9.97786C42.8643 8.4428 41.7893 6.90775 40.0999 4.75867C39.6391 4.14465 38.5641 3.68413 38.1033 3.22362C37.489 2.60959 37.0283 2.14908 35.9532 1.53506C34.4174 1.07454 32.8816 0.460517 31.1922 0C29.6564 0 28.1206 0 25.9705 0C24.4347 0.460517 22.8988 1.07454 21.2095 1.53506C20.1344 2.14908 19.2129 2.60959 18.1378 3.22362Z" fill="#B4CD45"/>
<path d="M16.4466 4.14464C15.5252 5.21918 13.8358 6.29372 12.9143 7.36826C11.8392 8.4428 11.2249 9.51734 10.7642 11.0524C11.8392 12.5874 12.9143 14.1225 14.4501 15.8111C15.5252 17.8066 17.061 19.4952 18.5968 21.0303C21.2076 23.6398 24.4328 26.8635 27.5045 29.4731C27.5045 27.324 27.5045 24.7144 27.5045 22.5653C27.5045 17.3461 27.0437 12.1269 26.4294 6.29372C25.9687 4.75867 25.5079 2.60959 24.8936 0.46051C23.8185 0.46051 22.2827 1.07453 21.2076 1.53505C20.1326 2.14907 19.2111 2.60959 18.136 3.22361C17.5217 3.68413 17.061 3.68413 16.4466 4.14464Z" fill="#8ABC36"/>
<path d="M-3.97974 66.7749V34.0782C-3.51899 34.6923 -3.51899 34.6923 -2.90467 34.6923C-2.44393 35.7668 -1.82961 36.2273 -1.36886 36.8413C-0.293799 37.7624 -0.293799 38.3764 0.166943 39.4509C1.24201 40.986 1.85633 42.521 2.31707 45.1306C2.31707 46.8192 2.77782 48.3543 2.77782 50.5033L3.39214 50.9638V51.4244C3.39214 53.1129 3.85288 54.034 3.85288 55.7225C4.4672 57.7181 5.54227 59.8672 6.46375 62.0162V61.4022C7.53882 63.0908 8.15314 64.0118 9.22821 65.0864C9.68895 65.7004 9.68895 65.7004 10.1497 66.1609C10.764 66.1609 10.764 66.1609 11.2248 66.1609C11.2248 66.1609 11.2248 66.1609 11.8391 66.1609C11.8391 66.1609 11.8391 66.1609 12.2998 66.1609C12.2998 66.1609 12.2998 66.1609 12.9141 66.1609C12.9141 65.7004 13.3749 65.7004 13.3749 65.7004C13.8356 65.0864 13.8356 64.6258 14.45 64.0118C14.9107 62.4768 15.525 61.4022 15.9858 59.8672C16.4465 58.3321 16.4465 56.7971 16.4465 55.1085C16.4465 53.1129 15.9858 50.5033 14.9107 47.2797C14.45 44.6701 13.3749 41.4465 12.2998 38.8369C11.2248 36.2273 10.764 34.0782 9.68895 31.4686C9.22821 29.4731 8.61388 26.8635 8.15314 23.6399C7.53882 21.0303 8.15314 18.4207 8.61388 15.8111C8.61388 14.7365 9.22821 13.662 9.68895 12.5875C10.764 14.1225 11.8391 15.1971 12.9141 16.7321C13.8356 18.4207 15.525 19.9557 17.0608 21.4908C20.1324 25.1749 23.8184 28.3985 27.5043 31.4686C27.5043 34.0782 27.5043 36.8413 27.0436 39.4509C26.4292 45.1306 25.9685 50.9638 24.8934 56.183C23.3576 62.4768 21.8218 68.31 19.6717 73.9897C18.5966 76.7528 17.0608 79.8229 15.9858 82.4325C14.45 81.972 12.2998 80.8974 10.764 79.8229C6.46375 77.2133 2.77782 73.9897 -0.293799 70.9196C-1.36886 69.845 -2.90467 68.31 -3.97974 66.7749Z" fill="#8ABC36"/>
<path d="M-3.97974 119.274V69.3845C-0.754541 73.5291 3.39214 76.7528 7.53882 79.8229C10.1497 81.3579 12.9141 83.0465 15.525 84.121C12.9141 89.8007 10.1497 95.0199 7.53882 100.393C4.92795 104.537 2.77782 108.682 0.166944 112.98C-1.36886 114.976 -2.44393 117.125 -3.97974 119.274Z" fill="#8ABC36"/>
<path d="M28.1186 7.82878C28.5793 9.97786 29.1937 12.1269 29.1937 14.7365C30.7295 14.1225 32.2653 13.662 33.8011 12.5875H33.3403C36.5655 11.0524 39.1764 8.90332 41.7873 6.75424C41.1729 6.29373 40.7122 5.83321 40.0979 4.75867C39.6371 4.14465 38.5621 3.68413 38.1013 3.22362C37.487 2.60959 37.0263 2.14908 35.9512 1.53506C34.4154 1.07454 32.8796 0.460517 31.1902 0C29.6544 0 28.1186 0 26.4292 0C27.5043 2.60959 28.1186 5.21919 28.1186 7.82878Z" fill="#8ABC36"/>
<path d="M37.0264 12.5875C34.4155 14.1225 32.2654 15.8111 29.1938 16.2716C29.1938 18.4207 29.6545 19.9557 29.6545 22.1048C29.6545 26.8635 29.1938 32.0827 29.1938 36.8413C28.5795 40.986 28.1187 45.7447 27.5044 50.5033C27.0437 55.1085 25.9686 59.8672 24.4328 64.6258C23.8185 66.1609 23.3577 68.31 22.897 70.459C25.9686 69.3845 29.1938 68.31 31.8047 66.7749C34.8763 65.7004 38.1015 64.0118 40.7123 62.4768C45.4733 59.4066 50.0808 56.183 54.8418 53.1129C55.9168 52.0384 56.9919 50.9638 58.067 49.8893C58.5277 49.4288 59.6028 48.3542 60.6778 47.2797C62.2136 46.2052 63.2887 44.6701 64.8245 43.5956C66.5139 42.0605 67.4354 40.372 68.5104 38.8369L69.1248 38.3764C68.5104 37.7624 68.0497 37.3019 67.4354 37.3019C66.5139 36.8413 65.8996 36.8413 65.4388 36.8413C64.3638 36.2273 63.2887 36.2273 62.2136 36.2273C60.0635 36.2273 58.5277 36.8413 56.9919 37.3019C56.5311 37.7624 55.9168 37.7624 55.9168 37.7624C53.306 39.4509 51.7701 42.0605 50.0808 44.6701L49.62 45.1306C48.5449 47.2797 47.4699 48.8148 45.9341 50.3498C44.859 51.4244 44.3983 52.0384 43.7839 52.0384C42.8625 52.4989 41.7874 53.1129 40.7123 53.5734C40.098 53.5734 39.6373 53.5734 39.1765 53.5734H38.5622C38.1015 53.5734 38.1015 53.5734 38.1015 53.5734L37.4871 53.1129L37.0264 52.4989V52.0384C37.0264 51.4244 36.5657 50.9638 36.5657 50.3498C36.5657 48.8148 37.0264 46.8192 37.4871 45.7447C38.1015 43.5956 38.5622 40.986 39.6373 38.3764L40.7123 36.8413C40.7123 36.2273 41.1731 35.1528 41.7874 34.0782C42.2481 32.0827 42.8625 30.3941 43.3232 28.3985C44.859 23.6399 44.859 19.9557 44.859 16.2716C44.3983 14.1225 44.3983 12.1269 43.3232 9.97787C43.3232 9.51735 42.8625 8.90333 42.2481 8.44281C40.7123 9.51735 39.1765 11.0524 37.0264 12.5875Z" fill="#8ABC36"/>
<path d="M70.1998 39.9114C69.1247 41.4465 67.4353 43.1351 66.5138 44.6701C64.8245 46.2052 63.2886 47.2797 61.7528 48.8148C60.6778 49.4288 60.0634 50.5033 59.142 51.4244C58.0669 52.0384 56.9918 53.1129 55.9168 53.5734C53.7666 55.7225 51.7701 57.2576 49.62 58.7926C45.4733 61.4022 40.7123 64.0118 35.9513 66.7749C33.8011 67.6959 31.1903 68.7705 29.1937 69.845C26.4293 70.9196 24.4327 71.9941 21.8218 72.4546C19.6717 78.7483 17.0608 85.0421 13.8356 91.3358C12.2998 94.0989 11.2248 96.7085 9.68896 99.3181H10.1497C15.9858 99.3181 22.2826 98.2436 28.1187 97.169C33.8011 96.0945 39.6372 95.0199 44.859 93.4849C54.381 90.8753 64.3637 87.6517 73.2714 83.0465H72.8106C75.4215 81.3579 78.0324 79.8229 80.1825 78.2878V77.6738C80.1825 77.2133 79.5682 76.7528 79.5682 76.7528C79.1075 76.1388 78.4931 75.6782 78.4931 75.6782C77.4181 74.1432 75.4215 73.5292 73.2714 73.5292C71.1213 73.5292 69.1247 74.1432 66.9746 75.0642C65.4388 75.6782 63.2886 76.1388 61.1385 77.2133H60.6778C58.5276 78.2878 56.5311 78.7483 53.7666 79.8229L54.381 79.3624C52.8452 79.8229 51.7701 80.4369 50.695 80.4369C50.0807 80.4369 49.62 80.4369 49.1592 79.8229C48.5449 79.8229 48.5449 79.8229 48.0841 79.8229C48.0841 79.3624 48.0841 79.3624 47.4698 79.3624C47.4698 78.7483 47.4698 78.7483 47.0091 78.7483V78.2878V77.6738C47.0091 77.6738 47.0091 77.6738 47.0091 77.2133C47.0091 77.2133 47.0091 76.7528 47.4698 76.7528C47.4698 75.6782 48.0841 75.0642 48.5449 74.6037C49.62 74.1432 50.695 73.0686 51.7701 72.4546C52.8452 71.3801 54.381 70.459 55.456 69.845C56.5311 68.7705 57.4526 68.31 59.142 67.6959V67.2354C60.0634 66.7749 61.1385 66.1609 61.7528 65.7004C62.2136 65.7004 62.2136 65.0864 62.8279 65.0864C63.2886 64.6258 63.7494 64.0118 63.7494 64.0118C64.8245 63.0908 65.8995 62.0162 66.9746 60.4812C67.4353 59.4066 68.5104 57.7181 69.1247 56.183C70.1998 54.648 70.6605 53.1129 71.1213 51.4244C72.1963 48.3542 72.1963 45.7447 71.7356 43.1351C71.7356 41.4465 71.1213 40.372 70.1998 39.4509V39.9114Z" fill="#8ABC36"/>
<path d="M7.07808 104.537C6.00301 106.686 4.4672 108.682 3.39214 110.831C2.31707 112.98 0.781267 114.976 -0.293798 116.664C-1.36886 118.66 -2.90467 120.348 -3.97974 121.883V134.931C-1.82961 134.931 0.166944 134.931 2.31707 134.471C6.00301 134.471 9.68895 134.01 13.8356 133.396C20.7468 132.322 28.1186 131.247 34.8762 129.712C42.2481 128.177 49.1592 126.028 55.9168 122.344H55.456C58.0669 120.809 60.6778 119.274 63.2886 117.739H62.8279C62.2136 116.05 61.1385 114.976 59.6027 114.055C59.1419 113.441 58.0669 112.98 57.4526 112.366C56.5311 111.906 55.9168 111.906 54.8417 111.292C53.3059 111.292 51.7701 111.292 49.6199 111.906C48.0841 112.366 45.934 112.98 44.3982 114.055C42.8624 114.515 41.173 114.976 39.6372 115.59C38.5621 116.05 37.0263 116.05 35.9513 116.05C34.8762 116.05 34.4154 116.05 33.8011 116.05C33.3404 115.59 33.3404 115.59 32.8796 115.59C32.8796 115.59 32.2653 115.59 32.2653 114.976L31.8046 114.515C31.8046 114.515 31.8046 114.515 31.8046 114.055V113.441C32.2653 112.98 32.2653 112.366 32.8796 111.906C33.3404 110.831 33.8011 110.37 34.4154 109.756C34.8762 108.682 35.9513 108.221 37.0263 107.761C38.1014 107.147 39.6372 106.686 41.173 106.072C45.4733 104.998 49.1592 104.537 53.3059 104.077H53.7666C55.456 104.077 57.4526 104.077 59.1419 103.463C60.6778 103.463 62.2136 103.002 63.7494 102.388C65.8995 101.314 68.0496 100.853 70.1998 99.3181C70.6605 98.7041 71.7356 98.2435 72.1963 98.2435C75.4215 96.0945 77.4181 93.4849 79.1074 90.8753C80.1825 89.3402 80.6432 88.2657 80.6432 86.7306C81.104 85.0421 81.104 83.507 81.104 81.972C81.104 80.8974 81.104 80.4369 80.6432 79.8229C76.4966 83.0465 72.1963 85.6561 67.4353 87.6517C58.0669 91.9498 48.5449 94.5594 38.5621 96.7085C33.8011 97.6295 29.1937 98.7041 24.4327 99.3181C21.8218 99.7786 19.211 100.393 16.4465 100.393C13.8356 100.853 11.8391 100.853 9.22821 100.853C8.61388 101.928 7.53882 103.002 7.07808 104.537Z" fill="#8ABC36"/>
<path d="M-3.97974 152.277C-0.75454 152.277 2.77782 152.892 6.46375 152.892H7.53882C9.22821 152.892 11.2248 152.892 12.9141 153.352C14.9107 153.352 17.5216 153.352 19.6717 152.892C24.4327 152.892 29.1937 152.277 33.8011 151.356C38.5621 150.282 43.3231 148.593 47.0091 146.598C48.0841 146.598 49.1592 145.984 50.0807 145.523C51.1558 144.449 52.2308 143.988 52.8451 143.374C53.7666 142.914 54.381 142.3 54.8417 141.839C55.456 141.379 55.9168 140.765 56.5311 140.304C59.142 137.694 60.6778 134.931 62.2136 131.861C63.7494 128.177 64.8244 124.954 64.3637 121.883C64.3637 120.809 63.7494 119.734 63.7494 119.274C61.1385 121.269 58.0669 123.418 54.8417 124.954C50.695 126.642 46.5483 128.177 41.7873 129.712C33.3404 132.322 23.8184 134.01 14.9107 134.931C12.9141 134.931 10.764 135.545 8.15314 135.545C6.00301 136.006 3.39214 136.006 0.781267 136.62C-0.75454 136.62 -2.44393 136.62 -3.97974 136.62V152.277Z" fill="#8ABC36"/>
<path d="M152.058 157.65C151.597 157.65 151.597 157.65 151.597 157.65C151.137 157.65 151.137 157.65 151.137 158.111C150.522 158.111 150.062 158.111 149.447 158.111L148.987 158.571L145.761 159.646L143.151 160.26L142.69 160.72C141.615 161.334 140.54 161.334 139.465 161.795C137.929 161.795 136.854 162.255 135.779 162.255C133.782 162.869 132.093 162.869 130.096 163.33C128.407 163.944 126.41 163.944 124.721 164.404C124.26 164.404 123.799 164.404 123.185 164.404C122.11 164.404 121.649 164.865 121.035 165.479C120.113 165.939 119.499 167.014 119.038 168.089C117.963 169.163 117.503 169.624 117.503 170.698C116.888 171.312 116.888 171.773 116.888 171.773L116.427 172.233C115.813 173.922 115.352 175.457 114.277 176.992C113.817 177.606 113.202 178.527 112.742 178.527C112.742 179.141 112.127 179.141 112.127 179.601C111.666 179.601 111.666 179.601 111.666 179.601C111.052 179.601 111.052 179.601 111.052 179.601C110.591 179.601 110.591 179.601 110.131 179.601C110.131 179.601 109.516 179.601 109.516 179.141C109.056 179.141 109.056 179.141 109.056 178.527H108.441C108.441 178.066 108.441 178.066 108.441 177.606C107.981 177.606 107.981 176.992 107.981 176.531C107.981 175.917 108.441 174.996 108.441 174.382C109.056 172.233 110.131 170.238 111.052 168.549C111.666 168.089 112.127 167.014 112.742 166.553C112.742 165.939 113.202 165.018 113.817 164.404C113.817 164.404 113.817 163.944 113.817 163.33C113.202 163.33 113.202 163.33 112.742 163.33C108.441 163.33 104.295 163.944 100.148 165.018C96.462 165.939 92.776 167.014 89.0901 169.163C85.8649 170.698 82.7933 172.847 79.5681 175.457C76.9572 177.606 73.732 180.215 71.1212 183.286C67.4352 186.97 63.7493 191.728 60.2169 196.948C58.0668 200.171 55.4559 203.855 53.3058 208H121.035C122.724 207.539 123.799 206.465 125.335 205.851C128.407 203.855 131.632 201.246 134.704 198.022C137.468 194.952 140.079 191.728 142.075 187.584C144.226 183.286 145.761 178.066 147.451 173.922V173.308L147.912 171.773C148.987 167.628 150.522 162.869 152.673 158.571C153.133 158.571 153.133 158.111 152.673 158.111C152.673 157.65 152.058 157.65 152.058 157.65Z" fill="#137F46"/>
<path d="M151.137 158.111C150.522 158.111 150.062 158.111 149.447 158.111L148.987 158.571L145.761 159.646L143.765 160.26L142.69 160.72L141.615 161.334C141.615 161.334 141.615 161.334 141.615 161.795C141.615 163.33 141.615 165.018 142.075 166.553C145.301 163.944 148.372 160.72 151.597 157.65C151.137 157.65 151.137 158.111 151.137 158.111Z" fill="#1F595E"/>
<path d="M137.468 162.869C136.393 162.869 135.318 163.33 134.704 163.33C134.243 163.33 133.782 163.944 133.168 163.944C132.707 163.944 132.707 163.944 132.093 163.944C131.018 163.944 130.557 164.404 129.482 164.404H129.021C129.021 168.089 129.482 172.233 130.096 175.917C133.168 173.922 136.393 171.773 139.004 169.163C139.465 168.549 140.079 168.089 140.54 168.089L140.079 167.628C140.079 166.554 140.079 165.018 140.079 163.944C140.079 163.33 140.079 162.255 140.079 161.795C139.004 161.795 137.929 162.255 137.468 162.869Z" fill="#1F595E"/>
<path d="M103.22 164.404C102.759 165.939 102.759 167.628 102.759 169.163C102.145 174.382 102.145 179.601 102.759 184.36C103.22 186.509 103.22 188.044 103.834 190.193C107.981 188.505 111.667 186.97 115.813 184.974C114.738 182.211 114.738 179.601 114.277 176.992C113.817 177.606 113.202 178.527 112.742 179.141C112.742 179.141 112.127 179.141 112.127 179.601C111.667 179.601 111.667 179.601 111.667 179.601C111.052 179.601 111.052 179.601 111.052 179.601C110.591 179.601 110.591 179.601 110.131 179.601C110.131 179.601 109.516 179.601 109.516 179.141C109.056 179.141 109.056 179.141 109.056 179.141C108.441 178.527 108.441 178.527 108.441 178.527C108.441 178.066 108.441 178.066 108.441 177.606C107.981 177.606 107.981 176.992 107.981 176.531C107.981 175.917 108.441 174.996 108.441 174.382C109.056 172.233 110.131 170.238 111.052 168.549C111.667 168.089 112.127 167.014 112.742 166.554C112.742 165.939 113.202 165.018 113.817 164.404C113.817 164.404 113.817 163.944 113.817 163.33C113.202 163.33 113.202 163.33 112.742 163.33C109.516 163.33 106.445 163.944 103.22 164.404Z" fill="#1F595E"/>
<path d="M100.148 165.018C96.4621 165.939 92.7761 167.628 89.0902 169.163C89.0902 169.163 88.4759 169.624 88.0151 169.624C88.0151 172.233 88.0151 174.996 88.0151 177.606C88.4759 180.676 88.4759 183.286 89.0902 186.509C89.5509 189.119 90.1653 191.728 90.626 194.338C90.626 194.338 91.0868 194.338 91.7011 194.338C95.387 192.803 98.4586 191.728 102.145 190.654C101.07 185.895 100.609 181.29 100.609 176.531C100.609 172.847 100.609 168.549 101.684 164.404C101.07 165.018 100.609 165.018 100.148 165.018Z" fill="#1F595E"/>
<path d="M79.5682 175.457C78.0324 176.992 76.4966 178.066 74.3464 179.601C74.3464 181.29 74.8072 182.825 74.8072 184.36V183.9C75.8822 188.505 76.9573 193.263 78.4931 198.636C81.7183 196.948 85.4042 195.873 89.0902 194.952L88.4759 194.338L89.0902 194.952L88.4759 194.338C88.0151 189.579 86.9401 184.36 86.4793 179.601C86.4793 176.992 85.865 174.996 86.4793 172.233C86.4793 171.773 86.4793 171.312 86.4793 170.698C83.7149 172.233 81.7183 173.922 79.5682 175.457Z" fill="#1F595E"/>
<path d="M71.1212 183.286C68.5104 186.509 65.4388 189.579 62.8279 193.263C62.8279 194.338 62.8279 194.952 63.2886 195.873C63.7494 198.636 64.3637 201.246 65.4388 203.241C65.4388 203.241 65.8995 203.241 66.5138 202.781C67.4353 202.781 68.0496 202.167 69.1247 201.706H69.5854C71.7356 200.632 74.3464 199.557 76.9573 199.097C75.8822 195.412 74.8072 191.728 73.7321 188.044C73.2714 185.895 73.2714 183.9 72.8106 181.29C72.1963 182.211 71.7356 182.825 71.1212 183.286Z" fill="#1F595E"/>
<path d="M60.0633 196.948C58.0668 200.171 55.9167 203.855 53.3058 208H55.9167C58.5275 206.465 61.1384 205.39 63.7493 204.316C62.8278 201.706 62.2135 199.097 61.7527 196.948C61.7527 196.487 61.1384 195.873 61.1384 195.413C61.1384 195.873 60.6777 196.487 60.0633 196.948Z" fill="#1F595E"/>
<path d="M126.871 164.404H125.796C124.721 164.404 124.26 164.404 123.185 164.404C122.11 165.018 121.649 165.018 121.035 165.479C120.113 165.939 119.499 167.014 119.038 168.089C117.963 169.163 117.349 170.238 117.349 170.698C116.888 171.312 116.888 171.773 116.428 172.233C116.428 172.847 116.428 173.308 115.813 173.922C115.813 175.917 115.813 178.066 116.428 179.601V180.215V179.601V180.215C116.888 181.29 116.888 182.825 117.349 184.36C121.035 182.211 124.721 180.215 127.946 178.066C128.407 177.606 128.407 177.606 128.407 177.606V176.992C127.946 172.847 127.485 168.549 127.485 164.404C126.871 164.404 126.871 164.404 126.871 164.404Z" fill="#1F595E"/>
<path d="M146.837 164.404C147.451 164.404 147.912 165.018 148.372 165.018C148.987 165.018 149.448 165.479 150.062 165.479C150.523 163.33 151.598 160.72 152.673 158.571C151.137 160.72 148.987 162.255 146.837 164.404Z" fill="#1F595E"/>
<path d="M135.779 173.922H136.393C139.004 175.917 141.615 177.606 144.687 178.527C144.687 178.527 145.301 179.141 145.762 179.141C146.376 176.992 146.837 175.457 147.451 173.922V173.308L147.912 171.773C148.372 170.238 148.987 168.549 149.448 167.014C147.912 166.554 146.837 165.94 145.301 165.479C142.69 168.549 139.465 171.312 135.779 173.922Z" fill="#1F595E"/>
<path d="M134.703 174.996C131.018 177.606 127.946 180.216 124.26 182.211C127.485 184.36 130.096 186.97 132.707 189.119C134.703 190.654 136.854 191.728 139.004 192.803C140.079 191.268 141 189.579 142.075 187.584C143.15 185.435 144.226 183.286 145.301 180.676C143.15 180.216 141.615 179.141 140.079 178.527C138.389 177.606 136.393 176.531 134.703 174.996Z" fill="#1F595E"/>
<path d="M112.742 188.505C111.667 188.505 111.052 189.119 110.592 189.119C110.592 189.579 111.052 190.193 111.052 190.654V190.193C115.353 195.413 120.114 199.557 125.335 203.241V203.855C125.796 203.855 126.41 204.316 126.871 204.93C129.482 202.781 132.093 200.632 134.704 198.022C135.779 196.948 136.854 195.413 137.929 194.338C135.318 192.803 132.707 191.268 130.557 189.579C127.946 187.584 125.335 185.435 122.724 183.286C119.499 184.974 115.813 186.97 112.742 188.505Z" fill="#1F595E"/>
<path d="M96.4622 194.338C97.3836 196.948 99.073 199.557 100.609 201.706C102.759 203.855 104.756 205.851 106.445 208H121.035C122.11 207.539 123.8 206.465 125.335 205.851V205.39C122.724 203.241 119.499 201.246 116.888 199.097C113.817 195.873 111.052 193.263 108.441 190.193C104.756 191.728 100.609 192.803 96.4622 194.338Z" fill="#1F595E"/>
<path d="M83.254 198.636C84.3291 200.171 85.4042 201.706 86.4792 203.241C86.94 204.93 88.4758 205.851 89.5508 207.539H89.0901L89.5508 208H104.295C103.22 206.925 102.144 205.851 101.069 204.93C100.148 203.241 98.4585 201.706 97.3835 200.171C96.462 198.636 95.3869 196.487 94.3118 194.952C90.6259 195.873 86.94 196.948 83.254 198.636Z" fill="#1F595E"/>
<path d="M70.6605 202.781C70.6605 203.241 71.1213 204.316 71.1213 204.316C71.7356 205.851 72.1963 206.925 72.8107 208H87.4008C86.4793 206.925 85.865 205.39 84.79 204.316C83.7149 202.781 82.7934 200.632 81.7183 199.097C78.0324 200.171 74.3465 201.706 70.6605 202.781Z" fill="#1F595E"/>
<path d="M62.8279 206.465C61.7528 206.925 60.6777 207.539 59.6027 208H71.1212C70.1997 206.465 69.5854 205.39 69.1247 203.855C66.9745 204.316 64.8244 205.39 62.8279 206.465Z" fill="#1F595E"/>
<path d="M148.372 159.185C146.376 160.26 143.765 160.72 141.615 161.334C141.615 161.334 141.615 161.334 141.615 161.795C141.615 162.255 141.615 162.255 141.615 162.869C143.765 162.255 145.761 161.795 147.451 161.334C148.372 160.72 148.987 160.26 149.447 159.646C149.447 159.185 148.987 159.185 148.987 159.185H148.372Z" fill="#1F595E"/>
<path d="M135.779 162.255C133.782 162.869 131.018 163.33 129.021 163.33C129.021 163.944 129.021 165.018 129.021 165.479C131.632 165.018 134.243 164.404 136.854 163.944C137.929 163.944 139.004 163.33 140.079 163.33C140.079 162.869 140.079 162.255 140.079 161.795C138.39 161.795 136.854 162.255 135.779 162.255Z" fill="#1F595E"/>
<path d="M122.724 164.404C122.724 165.018 122.724 165.018 122.724 165.018C122.11 165.479 122.11 165.479 122.11 165.479C122.724 165.939 122.724 165.939 122.724 165.939C123.185 166.553 123.185 166.553 123.185 166.553C123.799 165.939 124.26 165.939 124.721 165.939C125.335 165.939 126.41 165.479 127.485 165.479C127.485 165.018 127.485 164.404 127.485 163.944C125.796 163.944 124.26 164.404 122.724 164.404Z" fill="#1F595E"/>
<path d="M144.686 160.26C143.765 160.26 142.69 160.72 141.615 161.334C141.615 161.334 141.615 161.334 141.615 161.795C141.615 161.795 141.615 162.255 141.615 162.869C142.69 162.255 144.226 162.255 145.301 161.795C145.761 161.795 146.376 161.334 146.376 160.72C145.761 160.26 145.761 160.26 145.301 160.26H144.686Z" fill="#1F595E"/>
<path d="M133.782 162.869L133.168 163.33C133.168 163.944 133.168 163.944 133.168 163.944C133.168 164.404 133.782 164.404 133.782 164.404C133.782 165.018 134.243 164.404 134.243 164.404C136.393 164.404 137.929 163.944 140.079 163.33C140.079 162.869 140.079 162.255 140.079 161.795C137.929 162.255 135.779 162.869 133.782 162.869Z" fill="#1F595E"/>
<path d="M144.226 160.72C143.151 160.72 142.69 160.72 141.615 161.334V161.795C141.615 162.255 141.615 162.255 141.615 162.869C142.69 162.869 143.765 162.255 144.686 162.255C145.301 161.795 145.301 161.334 145.301 161.334C145.301 160.72 144.686 160.26 144.226 160.26V160.72Z" fill="#1F595E"/>
<path d="M132.093 163.33C131.632 163.33 131.632 164.404 131.632 164.404C131.632 165.018 132.093 165.018 132.093 165.018H132.707C135.318 164.404 137.468 163.944 140.079 163.33C140.079 162.869 140.079 162.255 140.079 161.795C137.468 162.255 134.704 162.869 132.093 163.33Z" fill="#1F595E"/>
<path d="M140.079 73.5291C139.465 73.5291 139.465 73.5291 139.465 73.5291C127.485 81.3579 116.428 88.2657 105.37 93.0243C100.609 94.5594 96.4621 96.7085 91.7011 97.6295C89.5509 98.704 86.9401 99.3181 84.7899 99.7786C82.7934 100.393 81.104 100.853 79.1075 101.314C75.4215 101.928 71.7356 101.928 68.5104 101.928H68.0496H66.5138C63.2886 101.928 59.142 101.928 55.9168 102.388C53.7666 102.388 51.7701 103.002 50.0807 103.002C48.5449 103.463 47.0091 104.077 45.934 104.537C44.8589 104.998 43.7839 106.072 42.8624 107.147C41.7873 107.607 41.173 109.296 40.0979 110.831C39.1765 112.98 38.5621 114.976 38.1014 116.664C37.4871 118.66 37.0263 120.809 36.5656 122.958L35.9513 124.953C35.4905 126.642 35.4905 128.177 34.8762 129.712C34.4155 131.247 33.8011 133.396 33.3404 135.545C32.8796 136.006 32.8796 136.62 32.2653 137.08C32.2653 137.694 31.8046 138.155 31.8046 138.615C30.7295 139.69 30.1152 141.379 29.1937 142.3C27.5043 144.909 25.9685 146.598 23.8184 148.133H24.4327C23.3576 148.593 22.8969 149.207 21.8218 149.207C21.8218 149.668 21.2075 149.668 20.7468 149.668H20.1324H19.6717V149.207L19.211 148.593C19.211 148.133 19.211 148.133 19.211 147.058C18.5966 145.523 18.5966 144.449 19.211 142.914C19.211 140.765 19.6717 138.615 20.1324 136.006L20.7468 133.396C21.2075 131.861 21.8218 129.712 21.8218 128.177C22.8969 123.418 23.8184 117.739 23.8184 111.906C23.8184 111.292 23.3576 110.831 22.8969 110.831C22.8969 110.831 22.2826 110.831 22.2826 111.292C18.5966 112.98 14.9107 114.976 11.8391 117.125C8.61389 119.274 5.54227 121.269 2.31707 124.032C0.166944 125.568 -1.82961 127.717 -3.97974 129.712V208H51.7701C62.2136 201.246 72.1963 193.263 80.1825 183.9C82.1791 181.751 83.7149 179.141 85.865 175.917C88.0151 173.308 90.1653 169.624 92.1618 165.939C95.8478 160.26 98.4586 153.352 101.684 144.909V144.449L101.07 143.988H100.609C99.5337 143.988 98.4586 143.988 97.3836 144.449C95.8478 144.449 94.312 144.909 92.7761 145.523C91.0868 145.523 89.0902 145.984 86.9401 145.984C85.865 145.984 85.4043 145.523 84.7899 145.523C83.7149 145.523 83.2541 145.523 82.1791 144.909C81.7183 144.909 81.7183 144.449 81.104 144.449C80.6433 144.449 80.6433 143.988 80.1825 143.988C80.1825 143.374 80.1825 142.914 79.5682 142.914C79.5682 141.839 79.1075 141.225 79.1075 140.765C79.1075 140.304 79.1075 139.69 79.1075 139.229C79.1075 138.615 79.1075 138.155 79.5682 137.694C79.5682 137.08 80.1825 136.62 80.1825 136.006C80.6433 135.545 81.104 134.931 81.7183 134.471C83.2541 133.396 84.3292 132.936 85.865 131.861C88.0151 130.787 90.626 130.326 93.8512 129.712C95.387 129.712 96.9228 129.252 99.073 129.252C99.5337 129.252 100.148 129.252 101.07 129.252C101.684 129.712 101.684 129.712 102.145 129.712C102.759 129.712 103.22 129.712 104.295 130.326C104.755 130.326 105.37 130.787 105.831 130.787L106.445 131.247C106.906 131.861 107.981 131.861 108.441 131.861C109.056 131.861 109.516 131.861 109.516 131.247C110.131 131.247 110.592 131.247 111.052 130.787C111.667 130.787 112.127 130.326 112.742 129.712C113.202 129.252 113.817 128.177 114.277 127.717C114.277 127.103 114.738 126.642 115.353 125.568C116.428 124.032 117.349 121.883 117.963 120.348C118.424 119.274 119.038 118.66 119.499 117.739V117.125L120.574 115.59C120.574 114.515 121.035 114.055 121.649 113.441C121.649 112.366 122.11 111.906 122.724 110.831V110.37C124.26 108.682 125.335 106.686 126.41 104.537V104.077L126.871 103.463C127.946 101.314 129.482 99.3181 130.557 96.7085C134.243 90.4147 137.929 83.0465 140.54 74.6037C141.001 74.6037 141.001 73.9897 140.54 73.9897V73.5291H140.079Z" fill="#00A1A6"/>
<path d="M126.41 81.9719C126.41 82.4325 126.41 83.0465 126.41 83.507C125.796 84.5815 125.796 85.6561 125.796 86.1166C125.796 86.7306 126.41 87.1911 126.41 87.1911V87.6516C129.021 85.6561 131.018 83.507 133.782 80.8974C135.779 78.7483 137.468 76.1387 139.004 73.5291C134.704 76.7528 130.557 79.3624 126.41 81.9719Z" fill="#00A0E3"/>
<path d="M110.131 90.8753C110.131 91.3358 109.516 91.9498 109.516 91.9498C109.516 94.5594 109.056 96.7085 109.056 98.7041C109.516 99.3181 109.516 100.393 109.516 100.853C113.817 97.6295 117.963 95.0199 121.649 91.9498C123.185 90.8753 124.26 89.8008 125.335 88.7262C124.721 88.7262 124.721 88.2657 124.721 88.2657C124.721 87.6517 124.26 87.6517 124.26 87.1912V86.7306C124.26 85.0421 124.26 84.121 124.721 83.0465C119.499 86.1166 114.738 88.2657 110.131 90.8753Z" fill="#00A0E3"/>
<path d="M105.37 93.0244C101.684 94.5594 98.4586 95.634 94.7727 96.7085C94.7727 98.2436 94.312 99.3181 94.312 100.853C94.312 103.463 93.8512 106.072 94.312 109.296C94.312 109.756 94.312 110.831 94.7727 111.906C99.073 108.221 103.834 104.998 108.441 101.928C107.981 100.853 107.981 100.393 107.366 99.3181C107.366 98.7041 107.366 97.6295 107.366 96.7085C107.366 95.0199 107.981 93.4849 107.981 91.3358C106.906 91.9498 106.445 92.4104 105.37 93.0244Z" fill="#00A0E3"/>
<path d="M91.701 97.6295C89.5509 98.7041 87.4008 99.3181 84.7899 99.7786C82.7933 100.393 81.1039 100.853 79.1074 101.314C78.0323 101.314 76.9573 101.314 75.8822 101.314C75.4214 103.463 74.8071 105.612 74.8071 107.761C73.7321 111.906 73.7321 116.664 73.7321 121.269C74.3464 122.958 74.3464 124.493 74.8071 126.028V126.642C75.8822 125.568 76.9573 124.954 78.4931 124.032C83.2541 120.348 88.0151 116.664 93.2368 112.98C92.7761 111.292 92.1618 109.756 92.1618 108.221C92.1618 106.686 92.1618 104.537 92.7761 103.002C92.7761 100.853 92.7761 99.3181 93.2368 97.6295C92.7761 97.6295 92.1618 97.6295 91.701 97.6295Z" fill="#00A0E3"/>
<path d="M68.0495 101.928H66.5137C62.8277 101.928 59.1418 101.928 55.9166 102.388H55.4558C53.7665 106.072 52.2306 109.756 51.1556 113.441C49.159 118.66 48.084 124.493 47.0089 129.712V130.326V129.712C45.9338 134.01 45.9338 138.155 45.9338 142.3C46.5482 144.449 46.5482 145.984 47.0089 147.672H47.4696C55.9166 140.765 64.8243 134.01 73.7319 127.717C72.8105 125.567 72.8105 124.032 72.1961 121.883C71.7354 117.739 72.1961 113.441 72.8105 108.682C73.2712 106.686 73.7319 104.077 74.3463 101.928C72.1961 101.928 70.1996 101.928 68.0495 101.928Z" fill="#00A0E3"/>
<path d="M50.0808 103.002C48.545 103.463 47.0092 104.077 45.9341 104.537C44.8591 104.998 43.784 106.072 42.8625 107.147C41.7875 108.221 41.1731 109.296 40.0981 110.831C39.1766 112.98 38.5623 114.976 38.1015 116.664C37.4872 118.66 37.0265 120.809 36.5657 122.958L35.9514 124.953C35.4906 126.642 35.4906 128.177 34.8763 129.712C34.4156 131.247 33.8013 133.396 33.3405 135.545C32.8798 136.006 32.8798 136.62 32.2654 137.08C32.2654 137.694 31.8047 138.155 31.8047 138.615C30.7296 140.304 30.1153 141.379 29.1938 142.3C27.5044 144.909 25.9686 146.598 23.8185 148.133H24.4328C23.3578 148.593 22.897 149.207 22.2827 149.207C21.822 151.817 20.7469 153.966 20.7469 156.576V155.962C20.1326 158.111 20.1326 160.72 20.1326 162.869C20.1326 164.404 20.7469 165.479 21.2076 166.553C21.2076 167.014 21.2076 167.628 21.822 168.089C29.6546 161.795 38.1015 155.501 45.9341 148.593C45.4734 147.672 44.8591 145.984 44.8591 144.909C44.3983 141.379 44.3983 137.08 44.8591 133.396C44.8591 129.252 45.9341 124.953 47.0092 120.809C48.545 114.515 51.1559 108.682 53.306 102.388C52.2309 103.002 51.1559 103.002 50.0808 103.002Z" fill="#00A0E3"/>
<path d="M22.2826 111.292C18.5966 112.98 14.9107 114.976 11.8391 117.125C8.61388 119.274 5.54227 121.269 2.31707 124.032C0.781266 124.954 -0.754541 126.642 -1.82961 128.177C-2.44393 129.712 -2.90467 131.247 -2.90467 132.936C-3.51899 134.931 -3.51899 137.08 -3.97974 139.23V183.286C-3.51899 183.9 -2.90467 184.36 -2.90467 184.974L-2.44393 185.435C-2.44393 185.895 -1.82961 186.509 -1.36886 186.97C4.92795 181.29 11.2248 176.531 17.5216 171.312C18.5966 170.238 19.6717 169.624 20.1324 169.163V168.549C19.6717 168.089 19.6717 167.628 19.211 167.014C18.5966 165.018 18.5966 163.33 18.5966 161.334C18.5966 159.646 18.5966 157.65 19.211 155.501C19.211 153.352 19.6717 151.817 20.1324 149.668H19.6717V149.207L19.211 148.593C19.211 148.133 19.211 148.133 19.211 147.058C18.5966 145.523 18.5966 143.988 19.211 142.914C19.211 140.765 19.6717 138.615 20.1324 136.006L20.7468 133.396C21.2075 131.861 21.8218 129.712 21.8218 128.177C22.8969 123.418 23.8184 117.739 23.8184 111.906C23.8184 111.292 23.3576 110.831 22.8969 110.831C22.8969 110.831 22.2826 110.831 22.2826 111.292Z" fill="#00A0E3"/>
<path d="M134.243 83.0465C132.093 85.0421 130.096 87.1911 127.946 88.7262C128.407 89.3402 129.021 89.3402 129.482 89.3402C130.557 89.8007 132.093 89.8007 133.168 89.3402C133.782 89.3402 133.782 89.3402 134.243 89.3402C136.854 84.5815 139.004 79.8229 140.54 74.6037V73.9897C139.004 77.2133 136.854 80.4369 134.243 83.0465Z" fill="#00A0E3"/>
<path d="M123.8 91.9499C120.114 95.634 115.353 98.7041 111.052 101.928C111.052 101.928 110.592 101.928 110.592 102.388C110.592 102.388 111.052 102.388 111.052 103.002C111.667 103.002 111.667 103.463 112.127 103.463C113.202 104.077 113.817 104.077 114.738 104.077C116.428 104.537 117.963 104.537 119.499 104.537C122.11 104.077 124.721 103.463 126.871 103.002C127.946 100.853 129.482 98.7041 130.557 96.7085C131.632 95.02 132.707 93.0244 133.782 91.3358C132.707 91.3358 132.093 91.3358 131.632 91.3358C130.557 91.3358 129.482 91.3358 128.407 90.8753C127.485 90.8753 126.871 90.4148 126.41 89.8008C125.796 90.8753 124.721 91.3358 123.8 91.9499Z" fill="#00A0E3"/>
<path d="M96.9229 111.906L95.3871 113.441C95.8478 114.055 95.8478 114.515 96.4621 114.515C96.9229 114.976 97.3836 115.59 98.4587 115.59C99.5338 116.05 100.609 116.664 101.684 116.664C104.295 117.125 107.366 117.125 110.131 116.664C113.817 116.664 116.888 116.05 120.114 114.976H120.574C120.574 114.515 121.035 114.055 121.649 113.441C121.649 112.366 122.11 111.906 122.724 110.831V110.37C123.8 108.682 124.721 106.686 125.796 104.998C124.26 105.612 122.724 105.612 121.035 106.072C119.499 106.072 117.349 106.072 115.813 106.072C114.278 106.072 112.742 105.612 111.052 104.998C110.592 104.537 109.517 104.077 109.056 103.002C104.756 106.072 101.07 109.296 96.9229 111.906Z" fill="#00A0E3"/>
<path d="M75.8821 128.177C75.8821 128.177 75.8821 128.638 76.4964 128.638C76.9571 129.712 77.4179 130.326 78.493 130.787H78.0322C79.1073 131.247 80.1823 132.322 81.7181 132.936C82.1789 132.936 82.7932 133.396 83.254 133.396C83.7147 132.936 84.7898 132.322 85.8648 131.861C88.015 130.787 90.6258 130.326 93.851 129.712C95.3868 129.252 96.9226 129.252 99.0728 129.252C99.5335 129.252 100.148 129.252 101.069 129.252C101.684 129.252 101.684 129.712 102.144 129.712C103.219 129.712 103.834 129.712 104.295 130.326C104.755 130.326 105.37 130.787 105.83 130.787L106.445 131.247C106.905 131.247 107.98 131.861 108.441 131.861C109.056 131.861 109.516 131.861 109.516 131.247C110.131 131.247 110.591 131.247 111.052 130.787C111.666 130.326 112.127 129.712 112.741 129.712C113.202 129.252 113.817 128.177 113.817 127.717C114.277 127.103 114.738 126.642 115.352 125.568C116.427 124.032 117.349 121.883 117.963 120.348C118.424 119.274 119.038 118.199 119.499 117.125C115.813 117.739 112.741 118.199 109.056 118.66C107.366 118.66 105.37 118.66 103.834 118.66C102.144 118.66 100.609 118.199 99.0728 117.739C97.9977 117.739 96.9226 117.125 95.8476 116.05C95.3868 115.59 94.7725 114.976 94.3118 114.515H93.6974C88.015 118.66 81.7181 123.418 75.8821 128.177Z" fill="#00A0E3"/>
<path d="M64.3638 136.62C59.142 140.765 53.306 144.909 48.0842 149.207C48.0842 149.668 48.545 150.282 48.545 150.742C49.62 151.817 50.0808 152.278 51.1558 153.352C52.8452 154.427 53.7667 154.887 55.4561 155.501C58.067 157.036 61.1386 157.65 64.3638 158.111C68.0497 158.571 71.7357 159.185 75.4216 159.185C79.1075 159.185 82.7935 159.185 86.4794 158.571C89.551 158.571 92.7762 158.111 95.8478 157.65H96.4622C98.4587 153.352 100.148 149.668 101.684 144.909C101.684 144.449 101.684 144.449 101.684 144.449L101.07 143.988H100.609C99.5338 143.988 98.4587 143.988 97.3836 144.449C95.8478 144.449 94.312 144.909 92.7762 145.523C91.0868 145.523 89.0903 145.984 86.9402 145.984C86.4794 145.984 85.4043 145.984 84.79 145.523C83.715 145.523 83.2542 145.523 82.1792 144.909C81.7184 144.909 81.7184 144.909 81.1041 144.449C80.6433 144.449 80.6433 143.988 80.1826 143.988C80.1826 143.374 80.1826 142.914 79.5683 142.914C79.5683 142.3 79.1075 141.379 79.1075 140.765C79.1075 140.304 79.1075 139.69 79.1075 139.23C79.1075 138.616 79.1075 138.155 79.5683 137.695C79.5683 137.08 80.1826 136.62 80.1826 136.006C80.6433 135.545 81.1041 134.931 81.7184 134.471C79.5683 134.01 78.0325 132.936 76.4967 131.247C75.8823 130.787 74.8073 129.712 74.3465 129.252C71.1213 131.247 68.0497 134.01 64.3638 136.62Z" fill="#00A0E3"/>
<path d="M33.8012 160.26C30.1153 163.33 26.4293 166.554 22.897 169.163C23.3577 169.624 23.8185 170.238 24.4328 170.698C25.5078 171.773 27.0437 172.847 28.5795 173.308C32.8797 175.457 37.4871 176.531 41.7874 176.992C44.3983 177.606 47.4699 178.066 50.0808 178.066C52.8452 178.527 55.4561 178.527 58.067 178.527C65.8996 179.141 74.3465 180.215 82.1791 179.601C82.7935 179.141 83.2542 179.141 83.715 179.141C84.3293 178.066 85.4043 176.992 85.8651 175.917C88.0152 172.847 90.1653 169.624 92.1619 165.939C93.237 163.944 94.7728 161.795 95.8478 159.185C93.237 159.646 91.0868 159.646 89.0903 160.26C82.7935 160.72 76.9574 161.334 70.6606 160.72C67.4354 160.72 64.3638 160.26 61.7529 159.646C58.5277 158.571 55.9168 158.111 53.7667 156.576C51.1558 155.501 49.62 153.966 48.0842 152.277C47.4699 151.817 47.0092 151.356 46.5484 150.282C42.2481 153.966 38.1015 157.036 33.8012 160.26Z" fill="#00A0E3"/>
<path d="M6.00311 182.825C3.85298 184.36 1.85643 186.509 -0.293701 188.044C0.167041 188.044 0.167041 188.505 0.781364 188.505C2.31717 190.193 3.85298 190.654 6.00311 191.728H5.54237C9.22831 193.264 12.9142 194.338 17.0609 194.952C17.5217 194.952 18.136 194.952 18.5967 194.952C29.6545 196.487 40.7124 196.487 51.7702 195.873C58.067 195.413 63.7495 194.952 69.5855 194.952C73.2715 191.268 76.9574 187.584 80.1826 183.9C80.6434 182.825 81.7184 182.211 82.1792 181.29C78.4932 181.29 74.3465 181.29 70.1999 181.29C65.8996 181.29 61.7529 180.676 56.9919 180.216C54.381 180.216 51.7702 180.216 48.545 179.602C45.4734 179.141 41.7874 179.141 38.5622 178.066C35.4906 177.606 31.8047 176.531 28.5795 175.457C27.5044 174.996 25.9686 173.922 24.8935 173.308C23.3577 172.233 22.2827 171.773 21.2076 170.698V170.238C15.9859 174.382 11.2249 178.527 6.00311 182.825Z" fill="#00A0E3"/>
<path d="M51.7701 208C56.9918 204.316 62.2136 200.632 67.4353 196.487C59.1419 196.948 50.695 198.022 42.8624 198.022C37.0263 198.022 31.1903 198.022 25.9685 197.562C23.3576 197.562 20.1324 196.948 17.5216 196.487C15.525 196.487 12.9141 195.873 10.764 195.413C9.22821 194.952 7.07808 194.338 5.54227 193.263C3.39214 192.803 1.85633 191.728 0.166943 190.654C-0.293799 190.193 -0.754541 189.579 -1.36886 189.119C-2.44393 189.579 -2.90467 190.654 -3.97974 191.268V208H51.7701Z" fill="#00A0E3"/>
</g>
</g>
<defs>
<filter id="filter0_d" x="-29" y="0" width="207" height="258" filterUnits="userSpaceOnUse" color-interpolation-filters="sRGB">
<feFlood flood-opacity="0" result="BackgroundImageFix"/>
<feColorMatrix in="SourceAlpha" type="matrix" values="0 0 0 0 0 0 0 0 0 0 0 0 0 0 0 0 0 0 127 0"/>
<feOffset dy="25"/>
<feGaussianBlur stdDeviation="12.5"/>
<feColorMatrix type="matrix" values="0 0 0 0 0 0 0 0 0 0 0 0 0 0 0 0 0 0 0.25 0"/>
<feBlend mode="normal" in2="BackgroundImageFix" result="effect1_dropShadow"/>
<feBlend mode="normal" in="SourceGraphic" in2="effect1_dropShadow" result="shape"/>
</filter>
<clipPath id="clip0">
<rect x="-4" width="157" height="208" fill="white"/>
</clipPath>
</defs>
</svg>
