<svg width="178" height="258" fill="none" xmlns="http://www.w3.org/2000/svg"><g filter="url(#filter0_d)"><g clip-path="url(#clip0)"><path d="M18.138 3.224c-.615.46-1.075.46-1.69.92-.921 1.075-2.61 2.15-3.532 3.224-2.15 2.61-3.686 5.22-4.3 8.443-.46 2.61-1.075 5.22-.46 7.829 0 3.223 1.074 5.833 1.535 7.829 1.075 2.61 2.15 5.372 2.61 7.368 1.076 2.61 2.15 5.22 2.612 8.443 1.075 3.223 1.535 5.833 1.535 7.828 0 1.689 0 3.224-.46 4.76-.461 1.534-1.075 2.609-1.536 4.144-.614.614-.614 1.074-1.075 1.688 0 0-.46 0-.46.46h-2.766c0-.46-.461-1.074-.922-1.074-1.075-1.074-1.69-1.995-2.764-3.684v.614a317.394 317.394 0 01-2.611-6.294c0-1.688-.46-2.61-.46-3.684v-1.074l-.462-.46v-.615c0-1.535-.614-3.07-.614-4.758-.46-2.61-1.075-4.145-2.15-5.68 0-1.075-.46-1.689-.922-2.61-1.075-.614-1.689-1.074-2.15-2.149-.614 0-.614 0-1.075-.614v118.199c3.225 0 6.911.614 10.444.614H7.54c1.69 0 3.686.461 5.375.461 1.997 0 4.607 0 6.758-.461 4.76 0 9.522-.614 14.13-1.535 4.76-1.074 9.521-2.763 13.207-4.298 1.075-.46 2.15-1.074 3.072-1.535 1.075-.614 2.15-1.535 2.764-2.149.922-.46 1.536-1.074 1.997-1.535.614-.46 1.075-1.074 1.689-1.535 2.61-2.61 4.607-5.373 5.682-8.443 1.536-3.684 2.611-6.908 2.15-9.978 0-1.535-.614-3.223-1.074-4.144-1.075-1.689-2.15-3.224-3.686-4.298-.461-.461-1.536-.461-2.15-1.075-.922-.46-1.536-.46-2.611-1.074-1.536 0-3.072 0-5.222.614-1.536.46-3.686 1.074-5.222 2.149-1.536.46-3.225.921-4.76 1.535-1.076.46-2.612.46-3.687.46h-2.15c-.46-.46-.46-.46-.921-.46 0 0-.615 0-.615-.614l-.46-.461v-.46s0-.614.46-.614c0-.461 0-1.075.615-1.535.46-1.075.921-1.536 1.535-2.15.461-1.074 1.536-1.535 2.611-1.995 1.075-.614 2.611-1.075 4.147-1.689 3.686-1.074 7.986-1.535 11.672-1.995h.922c1.689 0 3.686 0 5.375-.614 1.536 0 3.072-.461 4.607-1.075 2.15-.46 4.3-1.535 6.45-3.07.922-.614 1.537-.614 1.997-1.075 3.226-2.148 5.222-4.758 6.911-7.368 1.076-1.535 1.536-2.61 1.997-4.144v-4.76c0-1.534-.46-3.223-.921-4.297 0-.46-.615-.921-.615-.921-.46-.614-.46-1.075-1.075-1.689-1.075-.92-3.072-1.535-5.222-1.535-2.15 0-4.146.614-6.296 1.075-1.536 1.074-3.686 1.535-5.837 2.149l-.46.46c-2.15 1.075-4.147 1.535-6.911 2.15-.922.46-1.997.46-3.072 1.074-.614 0-1.075-.614-1.536-.614h-1.075c0-.46 0-.46-.614-.46 0-.615 0-.615-.461-.615v-1.534s0-.461.46-.461c0-1.075.615-1.689 1.076-2.15 1.075-.46 2.15-1.534 3.225-2.148 1.075-1.075 2.61-1.996 3.686-2.61 1.075-1.075 1.997-1.535 3.686-2.15v-.46h.46l.615-.46c.46 0 .921-.614 1.536-1.075.46 0 .46 0 1.075-.614.46-.46.921-.46 1.536-.92 1.075-1.075 1.535-2.15 2.61-3.685 1.076-1.074 1.536-2.763 2.611-4.298.615-1.535 1.075-3.07 1.536-4.759 1.075-3.07 1.075-5.68.614-8.289 0-1.688-.614-2.61-1.075-3.684-1.075-1.075-2.15-1.689-3.225-2.15-.921-.46-1.535-.46-1.996-.46-1.075-.614-2.15-.614-3.226-.614-1.996 0-3.685.614-5.221 1.075-.461 0-1.075.46-1.075.46-2.611 1.689-4.147 4.298-5.836 6.908l-.461.46c-1.075 2.15-2.15 3.685-3.686 5.373-1.075.46-1.536 1.535-2.15 1.535-.922.46-1.997 1.075-3.072 1.535h-2.61l-.615-.46-.46-.614v-.46c0-.615 0-1.075-.462-1.536 0-1.688.461-3.684.922-4.758.614-2.15 1.075-4.759 2.15-7.369l1.075-1.535c.461-1.074.461-1.688 1.075-2.763.461-1.995 1.075-3.684 1.536-5.68 1.536-4.758 2.15-8.442 1.536-12.126 0-2.15-.46-4.145-1.536-6.294-.46-1.535-1.536-3.07-3.225-5.22-.46-.613-1.536-1.074-1.997-1.534-.614-.614-1.075-1.075-2.15-1.689-1.536-.46-3.071-1.074-4.76-1.535H25.97c-1.535.46-3.071 1.075-4.76 1.535-1.076.614-1.997 1.075-3.072 1.689z" fill="#B4CD45"/><path d="M16.447 4.145c-.922 1.074-2.611 2.149-3.533 3.223-1.075 1.075-1.69 2.15-2.15 3.684 1.075 1.535 2.15 3.07 3.686 4.76 1.075 1.995 2.611 3.683 4.147 5.218 2.61 2.61 5.836 5.833 8.907 8.443v-6.908c0-5.219-.46-10.438-1.075-16.271-.46-1.535-.921-3.684-1.535-5.833-1.075 0-2.611.614-3.686 1.074-1.075.614-1.997 1.075-3.072 1.689-.614.46-1.075.46-1.69.92zM-3.98 66.775V34.078c.461.614.461.614 1.075.614.461 1.075 1.075 1.535 1.536 2.15 1.075.92 1.075 1.534 1.536 2.609 1.075 1.535 1.69 3.07 2.15 5.68 0 1.688.46 3.223.46 5.372l.615.46v.461c0 1.689.46 2.61.46 4.298.615 1.996 1.69 4.145 2.612 6.294v-.614c1.075 1.689 1.69 2.61 2.764 3.684.461.614.461.614.922 1.075h2.764c0-.46.46-.46.46-.46.462-.615.462-1.075 1.076-1.69.46-1.534 1.075-2.609 1.536-4.144.46-1.535.46-3.07.46-4.758 0-1.996-.46-4.606-1.535-7.83-.461-2.609-1.536-5.833-2.611-8.442-1.075-2.61-1.536-4.759-2.611-7.368-.46-1.996-1.075-4.606-1.536-7.83-.614-2.609 0-5.218.46-7.828 0-1.075.615-2.149 1.076-3.223 1.075 1.535 2.15 2.61 3.225 4.144.922 1.689 2.611 3.224 4.147 4.759 3.071 3.684 6.757 6.907 10.443 9.978 0 2.61 0 5.372-.46 7.982-.615 5.68-1.076 11.513-2.15 16.732-1.536 6.294-3.072 12.127-5.222 17.807-1.075 2.763-2.611 5.833-3.686 8.443-1.536-.461-3.686-1.536-5.222-2.61-4.3-2.61-7.986-5.833-11.058-8.903-1.075-1.075-2.61-2.61-3.686-4.145zm0 52.499v-49.89c3.225 4.146 7.372 7.37 11.52 10.439 2.61 1.535 5.375 3.224 7.986 4.298-2.61 5.68-5.375 10.899-7.986 16.272-2.611 4.144-4.761 8.289-7.372 12.587-1.536 1.996-2.61 4.145-4.147 6.294zM28.119 7.829c.46 2.149 1.075 4.298 1.075 6.907 1.536-.614 3.071-1.074 4.607-2.149h-.46c3.224-1.535 5.835-3.684 8.446-5.833-.614-.46-1.075-.92-1.69-1.995-.46-.614-1.535-1.075-1.996-1.535-.614-.614-1.075-1.075-2.15-1.689C34.415 1.075 32.88.461 31.191 0h-4.762c1.075 2.61 1.69 5.22 1.69 7.829z" fill="#8ABC36"/><path d="M37.026 12.588c-2.61 1.535-4.76 3.223-7.832 3.684 0 2.149.46 3.684.46 5.833 0 4.758-.46 9.978-.46 14.736-.614 4.145-1.075 8.904-1.69 13.662-.46 4.605-1.535 9.364-3.071 14.123-.614 1.535-1.075 3.684-1.536 5.833 3.072-1.075 6.297-2.149 8.908-3.684 3.071-1.075 6.297-2.763 8.907-4.298 4.761-3.07 9.369-6.294 14.13-9.364l3.225-3.224 2.61-2.61c1.537-1.074 2.612-2.609 4.148-3.683 1.689-1.535 2.61-3.224 3.685-4.76l.615-.46c-.615-.614-1.075-1.074-1.69-1.074-.921-.46-1.535-.46-1.996-.46-1.075-.615-2.15-.615-3.225-.615-2.15 0-3.686.614-5.222 1.075-.46.46-1.075.46-1.075.46-2.611 1.689-4.147 4.298-5.836 6.908l-.461.46c-1.075 2.15-2.15 3.685-3.686 5.22-1.075 1.074-1.536 1.688-2.15 1.688-.922.46-1.997 1.075-3.072 1.535h-2.61l-.615-.46-.46-.614v-.46c0-.615-.461-1.075-.461-1.69 0-1.534.46-3.53.921-4.604.614-2.15 1.075-4.759 2.15-7.369l1.075-1.535c0-.614.461-1.688 1.075-2.763.461-1.995 1.075-3.684 1.536-5.68 1.536-4.758 1.536-8.442 1.536-12.126-.46-2.15-.46-4.145-1.536-6.294 0-.46-.46-1.075-1.075-1.535-1.536 1.074-3.072 2.61-5.222 4.145z" fill="#8ABC36"/><path d="M70.2 39.911c-1.075 1.535-2.765 3.224-3.686 4.76-1.69 1.534-3.225 2.609-4.761 4.144-1.075.614-1.69 1.688-2.611 2.61-1.075.613-2.15 1.688-3.225 2.148-2.15 2.15-4.147 3.685-6.297 5.22-4.147 2.61-8.908 5.219-13.669 7.982-2.15.92-4.76 1.995-6.757 3.07-2.765 1.075-4.761 2.15-7.372 2.61-2.15 6.293-4.761 12.587-7.986 18.88-1.536 2.764-2.611 5.374-4.147 7.983h.46c5.837 0 12.134-1.074 17.97-2.149 5.682-1.075 11.518-2.15 16.74-3.684 9.522-2.61 19.505-5.833 28.412-10.439h-.46c2.61-1.688 5.221-3.223 7.371-4.758v-.614c0-.46-.614-.921-.614-.921a6.109 6.109 0 00-1.075-1.075c-1.075-1.535-3.072-2.149-5.222-2.149-2.15 0-4.146.614-6.296 1.535-1.536.614-3.686 1.075-5.836 2.15h-.461c-2.15 1.074-4.147 1.534-6.911 2.609l.614-.46c-1.536.46-2.61 1.074-3.686 1.074-.614 0-1.075 0-1.536-.614h-1.075c0-.46 0-.46-.614-.46 0-.615 0-.615-.46-.615v-1.534s0-.461.46-.461c0-1.075.614-1.689 1.075-2.15 1.075-.46 2.15-1.534 3.225-2.148 1.075-1.075 2.611-1.996 3.686-2.61 1.075-1.075 1.997-1.535 3.686-2.15v-.46c.921-.46 1.996-1.074 2.61-1.535.462 0 .462-.614 1.076-.614.46-.46.921-1.074.921-1.074a18.392 18.392 0 003.226-3.53c.46-1.075 1.535-2.764 2.15-4.299 1.075-1.535 1.535-3.07 1.996-4.759 1.075-3.07 1.075-5.68.615-8.289 0-1.688-.615-2.763-1.536-3.684v.46z" fill="#8ABC36"/><path d="M7.078 104.537c-1.075 2.149-2.61 4.145-3.686 6.294-1.075 2.149-2.61 4.145-3.686 5.833-1.075 1.996-2.61 3.684-3.686 5.219v13.048c2.15 0 4.147 0 6.297-.46 3.686 0 7.372-.461 11.519-1.075 6.91-1.074 14.283-2.149 21.04-3.684 7.372-1.535 14.283-3.684 21.04-7.368h-.46l7.833-4.605h-.461c-.614-1.689-1.69-2.763-3.225-3.684-.461-.614-1.536-1.075-2.15-1.689-.922-.46-1.536-.46-2.611-1.074-1.536 0-3.072 0-5.222.614-1.536.46-3.686 1.074-5.222 2.149-1.536.46-3.225.921-4.76 1.535-1.076.46-2.612.46-3.687.46h-2.15c-.46-.46-.46-.46-.921-.46 0 0-.615 0-.615-.614l-.46-.461v-1.074c.46-.461.46-1.075 1.075-1.535.46-1.075.921-1.536 1.535-2.15.461-1.074 1.536-1.535 2.611-1.995 1.075-.614 2.611-1.075 4.147-1.689 4.3-1.074 7.986-1.535 12.133-1.995h.46c1.69 0 3.687 0 5.376-.614 1.536 0 3.072-.461 4.607-1.075 2.15-1.074 4.3-1.535 6.45-3.07.462-.614 1.537-1.075 1.997-1.075 3.225-2.148 5.222-4.758 6.911-7.368 1.076-1.535 1.536-2.61 1.536-4.144.461-1.689.461-3.224.461-4.759 0-1.075 0-1.535-.46-2.15-4.147 3.224-8.448 5.834-13.209 7.83-9.368 4.298-18.89 6.907-28.873 9.056-4.76.921-9.368 1.996-14.13 2.61-2.61.46-5.221 1.075-7.985 1.075-2.611.46-4.608.46-7.219.46-.614 1.075-1.69 2.149-2.15 3.684z" fill="#8ABC36"/><path d="M-3.98 152.277c3.225 0 6.758.615 10.444.615h1.075c1.69 0 3.686 0 5.375.46 1.997 0 4.608 0 6.758-.46 4.76 0 9.522-.615 14.13-1.536 4.76-1.074 9.521-2.763 13.207-4.758 1.075 0 2.15-.614 3.072-1.075 1.075-1.074 2.15-1.535 2.764-2.149.922-.46 1.536-1.074 1.997-1.535.614-.46 1.075-1.074 1.69-1.535 2.61-2.61 4.146-5.373 5.682-8.443 1.535-3.684 2.61-6.907 2.15-9.978 0-1.074-.615-2.149-.615-2.609-2.61 1.995-5.682 4.144-8.907 5.68a181.65 181.65 0 01-13.055 4.758c-8.447 2.61-17.969 4.298-26.876 5.219-1.997 0-4.147.614-6.758.614-2.15.461-4.76.461-7.372 1.075h-4.76v15.657z" fill="#8ABC36"/><path d="M152.058 157.65h-.461c-.46 0-.46 0-.46.461h-1.69l-.46.46-3.226 1.075-2.61.614-.461.46c-1.075.614-2.15.614-3.225 1.075-1.536 0-2.611.46-3.686.46-1.997.614-3.686.614-5.683 1.075-1.689.614-3.686.614-5.375 1.074h-1.536c-1.075 0-1.536.461-2.15 1.075-.922.46-1.536 1.535-1.997 2.61-1.075 1.074-1.535 1.535-1.535 2.609-.615.614-.615 1.075-.615 1.075l-.461.46c-.614 1.689-1.075 3.224-2.15 4.759-.46.614-1.075 1.535-1.535 1.535 0 .614-.615.614-.615 1.074h-1.996s-.615 0-.615-.46c-.46 0-.46 0-.46-.614h-.615v-.921c-.46 0-.46-.614-.46-1.075 0-.614.46-1.535.46-2.149.615-2.149 1.69-4.144 2.611-5.833.614-.46 1.075-1.535 1.69-1.996 0-.614.46-1.535 1.075-2.149v-1.074h-1.075c-4.301 0-8.447.614-12.594 1.688-3.686.921-7.372 1.996-11.058 4.145-3.225 1.535-6.297 3.684-9.522 6.294-2.61 2.149-5.836 4.758-8.447 7.829-3.686 3.684-7.372 8.442-10.904 13.662-2.15 3.223-4.761 6.907-6.911 11.052h67.729c1.689-.461 2.764-1.535 4.3-2.149 3.072-1.996 6.297-4.605 9.369-7.829 2.764-3.07 5.375-6.294 7.371-10.438 2.151-4.298 3.686-9.518 5.376-13.662v-.614l.461-1.535c1.075-4.145 2.61-8.904 4.761-13.202.46 0 .46-.46 0-.46 0-.461-.615-.461-.615-.461z" fill="#137F46"/><path d="M151.137 158.111h-1.69l-.46.46-3.226 1.075-1.996.614-1.075.46-1.075.614v.461c0 1.535 0 3.223.46 4.758 3.226-2.609 6.297-5.833 9.522-8.903-.46 0-.46.461-.46.461zm-13.669 4.758c-1.075 0-2.15.461-2.764.461-.461 0-.922.614-1.536.614h-1.075c-1.075 0-1.536.46-2.611.46h-.461c0 3.685.461 7.829 1.075 11.513 3.072-1.995 6.297-4.144 8.908-6.754.461-.614 1.075-1.074 1.536-1.074l-.461-.461v-5.833c-1.075 0-2.15.46-2.611 1.074zm-34.248 1.535c-.461 1.535-.461 3.224-.461 4.759-.614 5.219-.614 10.438 0 15.197.461 2.149.461 3.684 1.075 5.833 4.147-1.688 7.833-3.223 11.979-5.219-1.075-2.763-1.075-5.373-1.536-7.982-.46.614-1.075 1.535-1.535 2.149 0 0-.615 0-.615.46h-1.996s-.615 0-.615-.46h-.46l-.615-.614v-.921c-.46 0-.46-.614-.46-1.075 0-.614.46-1.535.46-2.149.615-2.149 1.69-4.144 2.611-5.833.615-.46 1.075-1.535 1.69-1.995 0-.615.46-1.536 1.075-2.15v-1.074h-1.075c-3.226 0-6.297.614-9.522 1.074zm-3.072.614c-3.686.921-7.372 2.61-11.058 4.145 0 0-.614.461-1.075.461v7.982c.46 3.07.46 5.68 1.075 8.903.46 2.61 1.075 5.219 1.536 7.829h1.075a94.073 94.073 0 0110.444-3.684c-1.075-4.759-1.536-9.364-1.536-14.123 0-3.684 0-7.982 1.075-12.127-.614.614-1.075.614-1.536.614zm-20.58 10.439c-1.536 1.535-3.071 2.609-5.222 4.144 0 1.689.461 3.224.461 4.759v-.46c1.075 4.605 2.15 9.363 3.686 14.736 3.225-1.688 6.911-2.763 10.597-3.684l-.614-.614.614.614-.614-.614c-.46-4.759-1.536-9.978-1.997-14.737 0-2.609-.614-4.605 0-7.368v-1.535c-2.764 1.535-4.76 3.224-6.91 4.759zm-8.447 7.829c-2.61 3.223-5.682 6.293-8.293 9.977 0 1.075 0 1.689.46 2.61.461 2.763 1.076 5.373 2.15 7.368 0 0 .462 0 1.076-.46.921 0 1.536-.614 2.61-1.075h.461c2.15-1.074 4.761-2.149 7.372-2.609l-3.225-11.053c-.46-2.149-.46-4.144-.921-6.754-.615.921-1.075 1.535-1.69 1.996zm-11.058 13.662c-1.996 3.223-4.146 6.907-6.757 11.052h2.61c2.612-1.535 5.222-2.61 7.833-3.684-.921-2.61-1.535-5.219-1.996-7.368 0-.461-.615-1.075-.615-1.535 0 .46-.46 1.074-1.075 1.535zm66.808-32.544h-3.686c-1.075.614-1.536.614-2.15 1.075-.922.46-1.536 1.535-1.997 2.61-1.075 1.074-1.689 2.149-1.689 2.609-.461.614-.461 1.075-.921 1.535 0 .614 0 1.075-.615 1.689 0 1.995 0 4.144.615 5.679v.614-.614.614c.46 1.075.46 2.61.921 4.145 3.686-2.149 7.372-4.145 10.597-6.294l.461-.46v-.614c-.461-4.145-.922-8.443-.922-12.588h-.614zm19.966 0c.614 0 1.075.614 1.535.614.615 0 1.076.461 1.69.461.461-2.149 1.536-4.759 2.611-6.908-1.536 2.149-3.686 3.684-5.836 5.833zm-11.058 9.518h.614c2.611 1.995 5.222 3.684 8.294 4.605 0 0 .614.614 1.075.614.614-2.149 1.075-3.684 1.689-5.219v-.614l.461-1.535c.46-1.535 1.075-3.224 1.536-4.759-1.536-.46-2.611-1.074-4.147-1.535-2.611 3.07-5.836 5.833-9.522 8.443zm-1.076 1.074c-3.685 2.61-6.757 5.22-10.443 7.215 3.225 2.149 5.836 4.759 8.447 6.908 1.996 1.535 4.147 2.609 6.297 3.684 1.075-1.535 1.996-3.224 3.071-5.219 1.075-2.149 2.151-4.298 3.226-6.908-2.151-.46-3.686-1.535-5.222-2.149-1.69-.921-3.686-1.996-5.376-3.531zm-21.961 13.509c-1.075 0-1.69.614-2.15.614 0 .46.46 1.074.46 1.535v-.461c4.301 5.22 9.062 9.364 14.283 13.048v.614c.461 0 1.075.461 1.536 1.075 2.611-2.149 5.222-4.298 7.833-6.908 1.075-1.074 2.15-2.609 3.225-3.684-2.611-1.535-5.222-3.07-7.372-4.759-2.611-1.995-5.222-4.144-7.833-6.293-3.225 1.688-6.911 3.684-9.982 5.219zm-16.28 5.833c.922 2.61 2.611 5.219 4.147 7.368 2.15 2.149 4.147 4.145 5.836 6.294h14.59c1.075-.461 2.765-1.535 4.3-2.149v-.461c-2.611-2.149-5.836-4.144-8.447-6.293-3.071-3.224-5.836-5.834-8.447-8.904-3.685 1.535-7.832 2.61-11.979 4.145zm-13.208 4.298l3.225 4.605c.461 1.689 1.997 2.61 3.072 4.298h-.46l.46.461h14.744c-1.075-1.075-2.151-2.149-3.226-3.07-.921-1.689-2.61-3.224-3.686-4.759-.921-1.535-1.996-3.684-3.071-5.219-3.686.921-7.372 1.996-11.058 3.684zm-12.594 4.145c0 .46.461 1.535.461 1.535.615 1.535 1.075 2.609 1.69 3.684H87.4c-.922-1.075-1.536-2.61-2.611-3.684-1.075-1.535-1.997-3.684-3.072-5.219-3.686 1.074-7.371 2.609-11.058 3.684zm-7.832 3.684c-1.075.46-2.15 1.074-3.225 1.535H71.12c-.921-1.535-1.536-2.61-1.996-4.145-2.15.461-4.3 1.535-6.297 2.61z" fill="#1F595E"/><path d="M148.372 159.185c-1.996 1.075-4.607 1.535-6.757 2.149v1.535c2.15-.614 4.146-1.074 5.836-1.535.921-.614 1.536-1.074 1.996-1.688 0-.461-.46-.461-.46-.461h-.615zm-12.593 3.07c-1.997.614-4.761 1.075-6.758 1.075v2.149c2.611-.461 5.222-1.075 7.833-1.535 1.075 0 2.15-.614 3.225-.614v-1.535c-1.689 0-3.225.46-4.3.46zm-13.055 2.149v.614l-.614.461.614.46.461.614c.614-.614 1.075-.614 1.536-.614.614 0 1.689-.46 2.764-.46v-1.535c-1.689 0-3.225.46-4.761.46z" fill="#1F595E"/><path d="M144.686 160.26c-.921 0-1.996.46-3.071 1.074v1.535c1.075-.614 2.611-.614 3.686-1.074.46 0 1.075-.461 1.075-1.075-.615-.46-.615-.46-1.075-.46h-.615zm-10.904 2.609l-.614.461v.614c0 .46.614.46.614.46 0 .614.461 0 .461 0 2.15 0 3.686-.46 5.836-1.074v-1.535c-2.15.46-4.3 1.074-6.297 1.074z" fill="#1F595E"/><path d="M144.226 160.72c-1.075 0-1.536 0-2.611.614v1.535c1.075 0 2.15-.614 3.071-.614.615-.46.615-.921.615-.921 0-.614-.615-1.074-1.075-1.074v.46zm-12.133 2.61c-.461 0-.461 1.074-.461 1.074 0 .614.461.614.461.614h.614c2.611-.614 4.761-1.074 7.372-1.688v-1.535c-2.611.46-5.375 1.074-7.986 1.535z" fill="#1F595E"/><path d="M140.079 73.53h-.614c-11.98 7.828-23.037 14.736-34.095 19.494-4.761 1.535-8.908 3.684-13.669 4.605-2.15 1.075-4.76 1.69-6.911 2.15a78.013 78.013 0 01-5.683 1.535c-3.686.614-7.371.614-10.597.614h-1.996c-3.225 0-7.372 0-10.597.46-2.15 0-4.147.614-5.836.614-1.536.461-3.072 1.075-4.147 1.535-1.075.461-2.15 1.535-3.072 2.61-1.075.46-1.689 2.149-2.764 3.684-.922 2.149-1.536 4.145-1.997 5.833-.614 1.996-1.075 4.145-1.535 6.294l-.615 1.995c-.46 1.689-.46 3.224-1.075 4.759-.46 1.535-1.075 3.684-1.536 5.833-.46.461-.46 1.075-1.075 1.535 0 .614-.46 1.075-.46 1.535-1.075 1.075-1.69 2.764-2.611 3.685-1.69 2.609-3.226 4.298-5.376 5.833h.615c-1.075.46-1.536 1.074-2.611 1.074 0 .461-.614.461-1.075.461h-1.075v-.461l-.461-.614v-1.535c-.614-1.535-.614-2.609 0-4.144 0-2.149.46-4.299.921-6.908l.615-2.61c.46-1.535 1.075-3.684 1.075-5.219 1.075-4.759 1.996-10.438 1.996-16.271 0-.614-.46-1.075-.921-1.075 0 0-.614 0-.614.461-3.686 1.688-7.372 3.684-10.444 5.833-3.225 2.149-6.297 4.144-9.522 6.907-2.15 1.536-4.147 3.685-6.297 5.68V208h55.75c10.444-6.754 20.426-14.737 28.413-24.1 1.996-2.149 3.532-4.759 5.682-7.983 2.15-2.609 4.3-6.293 6.297-9.978 3.686-5.679 6.297-12.587 9.522-21.03v-.46l-.614-.461h-.461c-1.075 0-2.15 0-3.225.461-1.536 0-3.072.46-4.608 1.074-1.69 0-3.686.461-5.836.461-1.075 0-1.536-.461-2.15-.461-1.075 0-1.536 0-2.61-.614-.462 0-.462-.46-1.076-.46-.46 0-.46-.461-.921-.461 0-.614 0-1.074-.615-1.074 0-1.075-.46-1.689-.46-2.149v-1.536c0-.614 0-1.074.46-1.535 0-.614.615-1.074.615-1.688.46-.461.921-1.075 1.535-1.535 1.536-1.075 2.611-1.535 4.147-2.61 2.15-1.074 4.761-1.535 7.986-2.149 1.536 0 3.072-.46 5.222-.46h1.997c.614.46.614.46 1.075.46.614 0 1.075 0 2.15.614.46 0 1.075.461 1.536.461l.614.46c.461.614 1.536.614 1.996.614.615 0 1.075 0 1.075-.614.615 0 1.076 0 1.536-.46.615 0 1.075-.461 1.69-1.075.46-.46 1.075-1.535 1.535-1.995 0-.614.461-1.075 1.076-2.149 1.075-1.536 1.996-3.685 2.61-5.22.461-1.074 1.075-1.688 1.536-2.609v-.614l1.075-1.535c0-1.075.461-1.535 1.075-2.149 0-1.075.461-1.535 1.075-2.61v-.461c1.536-1.688 2.611-3.684 3.686-5.833v-.46l.461-.614c1.075-2.149 2.611-4.145 3.686-6.754 3.686-6.294 7.372-13.663 9.983-22.105.461 0 .461-.614 0-.614v-.46h-.461z" fill="#00A1A6"/><path d="M126.41 81.972v1.535c-.614 1.075-.614 2.15-.614 2.61 0 .614.614 1.074.614 1.074v.46c2.611-1.995 4.608-4.144 7.372-6.754 1.997-2.149 3.686-4.758 5.222-7.368-4.3 3.224-8.447 5.833-12.594 8.443zm-16.279 8.903c0 .46-.615 1.075-.615 1.075 0 2.61-.46 4.758-.46 6.754.46.614.46 1.689.46 2.149 4.301-3.224 8.447-5.833 12.133-8.903 1.536-1.075 2.611-2.15 3.686-3.224-.614 0-.614-.46-.614-.46 0-.614-.461-.614-.461-1.075v-.46c0-1.689 0-2.61.461-3.684-5.222 3.07-9.983 5.219-14.59 7.828zm-4.761 2.149c-3.686 1.535-6.911 2.61-10.597 3.684 0 1.536-.461 2.61-.461 4.145 0 2.61-.46 5.219 0 8.443 0 .46 0 1.535.46 2.61 4.301-3.685 9.062-6.908 13.669-9.978-.46-1.075-.46-1.535-1.075-2.61v-2.61c0-1.688.615-3.223.615-5.372-1.075.614-1.536 1.074-2.611 1.688zM91.701 97.63c-2.15 1.074-4.3 1.688-6.911 2.149a78.029 78.029 0 01-5.683 1.535h-3.225c-.46 2.149-1.075 4.298-1.075 6.447-1.075 4.145-1.075 8.903-1.075 13.508.614 1.689.614 3.224 1.075 4.759v.614c1.075-1.074 2.15-1.688 3.686-2.61 4.761-3.684 9.522-7.368 14.744-11.052-.46-1.688-1.075-3.224-1.075-4.759 0-1.535 0-3.684.614-5.219 0-2.149 0-3.684.46-5.373h-1.535z" fill="#00A0E3"/><path d="M68.05 101.928h-1.536c-3.686 0-7.372 0-10.597.46h-.461c-1.69 3.684-3.225 7.368-4.3 11.053-1.997 5.219-3.072 11.052-4.147 16.271v.614-.614c-1.075 4.298-1.075 8.443-1.075 12.588.614 2.149.614 3.684 1.075 5.372h.46a472.607 472.607 0 0126.263-19.955c-.921-2.15-.921-3.685-1.536-5.834-.46-4.144 0-8.442.615-13.201.46-1.996.92-4.605 1.535-6.754H68.05z" fill="#00A0E3"/><path d="M50.08 103.002c-1.535.461-3.07 1.075-4.146 1.535-1.075.461-2.15 1.535-3.072 2.61-1.075 1.074-1.689 2.149-2.764 3.684-.921 2.149-1.536 4.145-1.996 5.833-.615 1.996-1.075 4.145-1.536 6.294l-.615 1.995c-.46 1.689-.46 3.224-1.075 4.759-.46 1.535-1.075 3.684-1.535 5.833-.461.461-.461 1.075-1.076 1.535 0 .614-.46 1.075-.46 1.535-1.075 1.689-1.69 2.764-2.611 3.685-1.69 2.609-3.225 4.298-5.375 5.833h.614c-1.075.46-1.536 1.074-2.15 1.074-.461 2.61-1.536 4.759-1.536 7.369v-.614c-.614 2.149-.614 4.758-.614 6.907 0 1.535.614 2.61 1.075 3.684 0 .461 0 1.075.614 1.536 7.833-6.294 16.28-12.588 24.112-19.496-.46-.921-1.075-2.609-1.075-3.684-.46-3.53-.46-7.829 0-11.513 0-4.144 1.075-8.443 2.15-12.587 1.536-6.294 4.147-12.127 6.297-18.421-1.075.614-2.15.614-3.225.614z" fill="#00A0E3"/><path d="M22.283 111.292c-3.686 1.688-7.372 3.684-10.444 5.833-3.225 2.149-6.297 4.144-9.522 6.907-1.536.922-3.072 2.61-4.147 4.145-.614 1.535-1.075 3.07-1.075 4.759-.614 1.995-.614 4.144-1.075 6.294v44.056c.461.614 1.075 1.074 1.075 1.688l.461.461c0 .46.614 1.074 1.075 1.535 6.297-5.68 12.594-10.439 18.89-15.658 1.076-1.074 2.15-1.688 2.611-2.149v-.614c-.46-.46-.46-.921-.921-1.535-.614-1.996-.614-3.684-.614-5.68 0-1.688 0-3.684.614-5.833 0-2.149.46-3.684.921-5.833h-.46v-.461l-.461-.614v-1.535c-.614-1.535-.614-3.07 0-4.144 0-2.149.46-4.299.921-6.908l.615-2.61c.46-1.535 1.075-3.684 1.075-5.219 1.075-4.759 1.996-10.438 1.996-16.271 0-.614-.46-1.075-.921-1.075 0 0-.614 0-.614.461zm111.96-28.246c-2.15 1.996-4.147 4.145-6.297 5.68.461.614 1.075.614 1.536.614 1.075.46 2.611.46 3.686 0h1.075c2.611-4.758 4.761-9.517 6.297-14.736v-.614c-1.536 3.223-3.686 6.447-6.297 9.056zM123.8 91.95c-3.686 3.684-8.447 6.754-12.748 9.978 0 0-.46 0-.46.46 0 0 .46 0 .46.614.615 0 .615.461 1.075.461 1.075.614 1.69.614 2.611.614 1.69.46 3.225.46 4.761.46 2.611-.46 5.222-1.074 7.372-1.535 1.075-2.149 2.611-4.298 3.686-6.293 1.075-1.689 2.15-3.685 3.225-5.373h-2.15c-1.075 0-2.15 0-3.225-.46-.922 0-1.536-.461-1.997-1.075-.614 1.074-1.689 1.535-2.61 2.149z" fill="#00A0E3"/><path d="M96.923 111.906l-1.536 1.535c.46.614.46 1.074 1.075 1.074.46.461.922 1.075 1.997 1.075 1.075.46 2.15 1.074 3.225 1.074 2.611.461 5.682.461 8.447 0 3.686 0 6.757-.614 9.983-1.688h.46c0-.461.461-.921 1.075-1.535 0-1.075.461-1.535 1.075-2.61v-.461c1.076-1.688 1.997-3.684 3.072-5.372-1.536.614-3.072.614-4.761 1.074h-5.222c-1.535 0-3.071-.46-4.761-1.074-.46-.461-1.535-.921-1.996-1.996-4.3 3.07-7.986 6.294-12.133 8.904z" fill="#00A0E3"/><path d="M75.882 128.177s0 .461.614.461c.461 1.074.922 1.688 1.997 2.149h-.46c1.074.46 2.15 1.535 3.685 2.149.46 0 1.075.46 1.536.46.46-.46 1.536-1.074 2.61-1.535 2.151-1.074 4.762-1.535 7.987-2.149 1.536-.46 3.072-.46 5.222-.46h1.996c.615 0 .615.46 1.075.46 1.075 0 1.69 0 2.151.614.46 0 1.075.461 1.535.461l.615.46c.46 0 1.535.614 1.996.614.615 0 1.075 0 1.075-.614.615 0 1.075 0 1.536-.46.614-.461 1.075-1.075 1.689-1.075.461-.46 1.076-1.535 1.076-1.995.46-.614.921-1.075 1.535-2.149 1.075-1.536 1.997-3.685 2.611-5.22.461-1.074 1.075-2.149 1.536-3.223a245.6 245.6 0 01-10.443 1.535h-5.222c-1.69 0-3.225-.461-4.761-.921-1.075 0-2.15-.614-3.225-1.689l-1.536-1.535h-.615c-5.682 4.145-11.979 8.903-17.815 13.662zm-11.518 8.443c-5.222 4.145-11.058 8.289-16.28 12.587 0 .461.461 1.075.461 1.535l2.61 2.61c1.69 1.075 2.612 1.535 4.301 2.149 2.611 1.535 5.683 2.149 8.908 2.61 3.686.46 7.372 1.074 11.058 1.074s7.371 0 11.057-.614c3.072 0 6.297-.46 9.369-.921h.614c1.997-4.298 3.686-7.982 5.222-12.741v-.46l-.614-.461h-.461c-1.075 0-2.15 0-3.225.461-1.536 0-3.072.46-4.608 1.074-1.69 0-3.686.461-5.836.461-.46 0-1.536 0-2.15-.461-1.075 0-1.536 0-2.61-.614-.462 0-.462 0-1.076-.46-.46 0-.46-.461-.921-.461 0-.614 0-1.074-.615-1.074 0-.614-.46-1.535-.46-2.149v-1.535c0-.614 0-1.075.46-1.535 0-.615.615-1.075.615-1.689.46-.461.921-1.075 1.535-1.535-2.15-.461-3.686-1.535-5.221-3.224-.615-.46-1.69-1.535-2.15-1.995-3.226 1.995-6.297 4.758-9.983 7.368z" fill="#00A0E3"/><path d="M33.801 160.26c-3.686 3.07-7.372 6.294-10.904 8.903.46.461.922 1.075 1.536 1.535 1.075 1.075 2.61 2.149 4.146 2.61 4.3 2.149 8.908 3.223 13.208 3.684 2.611.614 5.683 1.074 8.294 1.074 2.764.461 5.375.461 7.986.461 7.833.614 16.28 1.688 24.112 1.074.614-.46 1.075-.46 1.536-.46.614-1.075 1.69-2.149 2.15-3.224 2.15-3.07 4.3-6.293 6.297-9.978 1.075-1.995 2.61-4.144 3.686-6.754-2.611.461-4.761.461-6.758 1.075-6.297.46-12.133 1.074-18.43.46-3.225 0-6.296-.46-8.907-1.074-3.225-1.075-5.836-1.535-7.986-3.07-2.611-1.075-4.147-2.61-5.683-4.299-.614-.46-1.075-.921-1.536-1.995-4.3 3.684-8.447 6.754-12.747 9.978z" fill="#00A0E3"/><path d="M6.003 182.825c-2.15 1.535-4.147 3.684-6.297 5.219.461 0 .461.461 1.075.461 1.536 1.688 3.072 2.149 5.222 3.223h-.46c3.685 1.536 7.371 2.61 11.518 3.224h1.536c11.057 1.535 22.115 1.535 33.173.921 6.297-.46 11.98-.921 17.815-.921 3.687-3.684 7.372-7.368 10.598-11.052.46-1.075 1.535-1.689 1.996-2.61H70.2c-4.3 0-8.446-.614-13.207-1.074-2.611 0-5.222 0-8.447-.614-3.072-.461-6.758-.461-9.983-1.536-3.071-.46-6.757-1.535-9.982-2.609-1.076-.461-2.611-1.535-3.686-2.149-1.536-1.075-2.611-1.535-3.686-2.61v-.46c-5.222 4.144-9.983 8.289-15.205 12.587z" fill="#00A0E3"/><path d="M51.77 208c5.222-3.684 10.444-7.368 15.665-11.513-8.293.461-16.74 1.535-24.573 1.535-5.836 0-11.672 0-16.894-.46-2.61 0-5.836-.614-8.446-1.075-1.997 0-4.608-.614-6.758-1.074-1.536-.461-3.686-1.075-5.222-2.15-2.15-.46-3.686-1.535-5.375-2.609-.46-.461-.922-1.075-1.536-1.535-1.075.46-1.536 1.535-2.61 2.149V208h55.75z" fill="#00A0E3"/></g></g><defs><clipPath id="clip0"><path fill="#fff" d="M-4 0h157v208H-4z"/></clipPath><filter id="filter0_d" x="-29" y="0" width="207" height="258" filterUnits="userSpaceOnUse" color-interpolation-filters="sRGB"><feFlood flood-opacity="0" result="BackgroundImageFix"/><feColorMatrix in="SourceAlpha" values="0 0 0 0 0 0 0 0 0 0 0 0 0 0 0 0 0 0 127 0"/><feOffset dy="25"/><feGaussianBlur stdDeviation="12.5"/><feColorMatrix values="0 0 0 0 0 0 0 0 0 0 0 0 0 0 0 0 0 0 0.25 0"/><feBlend in2="BackgroundImageFix" result="effect1_dropShadow"/><feBlend in="SourceGraphic" in2="effect1_dropShadow" result="shape"/></filter></defs></svg>